<?xml version="1.0" encoding="UTF-8" standalone="no"?>
<svg
   xmlns:dc="http://purl.org/dc/elements/1.1/"
   xmlns:cc="http://creativecommons.org/ns#"
   xmlns:rdf="http://www.w3.org/1999/02/22-rdf-syntax-ns#"
   xmlns:svg="http://www.w3.org/2000/svg"
   xmlns="http://www.w3.org/2000/svg"
   width="16"
   version="1.1"
   id="svg7384"
   height="16">
  <metadata
     id="metadata90">
    <rdf:RDF>
      <cc:Work
         rdf:about="">
        <dc:format>image/svg+xml</dc:format>
        <dc:type
           rdf:resource="http://purl.org/dc/dcmitype/StillImage" />
        <dc:title>Gnome Symbolic Icon Theme</dc:title>
      </cc:Work>
    </rdf:RDF>
  </metadata>
  <title
     id="title9167">Gnome Symbolic Icon Theme</title>
  <defs
     id="defs7386" />
  <g
     transform="translate(6.7773435e-6,-0.0031662)"
     id="layer1" />
  <g
     transform="translate(6.7773435e-6,-0.0031662)"
     id="layer2" />
  <g
     transform="translate(6.7773435e-6,-0.0031662)"
     id="layer3">
    <path
       d="M 1.09047,13.22097 2,13 3.43279,11.58172 c 0.35417,0.15628 1.61431,0.16764 1.96848,0 L 6.96664,13 7.74215,13.22097 7.94102,13.45444 V 15 H 0.93579002 v -1.52346 z"
       id="rect27311"
       style="color:#000000;clip-rule:nonzero;display:inline;overflow:visible;visibility:visible;opacity:1;isolation:auto;mix-blend-mode:normal;color-interpolation:sRGB;color-interpolation-filters:linearRGB;solid-color:#000000;solid-opacity:1;fill:#2e3436;fill-opacity:1;fill-rule:nonzero;stroke:none;stroke-width:1;stroke-linecap:butt;stroke-linejoin:miter;stroke-miterlimit:4;stroke-dasharray:none;stroke-dashoffset:0;stroke-opacity:1;marker:none;marker-start:none;marker-mid:none;marker-end:none;paint-order:normal;color-rendering:auto;image-rendering:auto;shape-rendering:auto;text-rendering:auto;enable-background:accumulate" />
    <path
       d="M 7.53479,1.99023 A 1.5277282,1.5277282 0 0 0 6.0074462,3.51758 1.5277282,1.5277282 0 0 0 6.12854,4.11133 L 4.6304931,5.93359 a 2.5,2.5 0 0 0 -0.1894531,-0.01 2.5,2.5 0 0 0 -2.5,2.5 2.5,2.5 0 0 0 2.5,2.5 2.5,2.5 0 0 0 2.5,-2.5 A 2.5,2.5 0 0 0 6.6480712,7.24977 L 7.5250244,5.04469 a 1.5277282,1.5277282 0 0 0 0.00977,0 1.5277282,1.5277282 0 0 0 1.3554644,-0.82617 L 10.841431,4.66774 A 1.5277282,1.5277282 0 0 0 12.351196,5.97243 1.5277282,1.5277282 0 0 0 13.880493,4.44508 1.5277282,1.5277282 0 0 0 12.351196,2.91774 1.5277282,1.5277282 0 0 0 10.984009,3.7693 L 9.0426025,3.27321 A 1.5277282,1.5277282 0 0 0 7.53479,1.99 Z"
       id="path27313"
       style="color:#000000;clip-rule:nonzero;display:inline;overflow:visible;visibility:visible;opacity:1;isolation:auto;mix-blend-mode:normal;color-interpolation:sRGB;color-interpolation-filters:linearRGB;solid-color:#000000;solid-opacity:1;fill:#2e3436;fill-opacity:1;fill-rule:nonzero;stroke:none;stroke-width:1;stroke-linecap:butt;stroke-linejoin:miter;stroke-miterlimit:4;stroke-dasharray:none;stroke-dashoffset:0;stroke-opacity:1;marker:none;marker-start:none;marker-mid:none;marker-end:none;paint-order:normal;color-rendering:auto;image-rendering:auto;shape-rendering:auto;text-rendering:auto;enable-background:accumulate" />
    <path
       d="m 10.94102,7.99999 -1.06629,1.91069 0.77903,2.08931 h 0.53125 l -0.24399,-2.46875 1.21875,-0.1875 0.21496,1.69887 0.57544,-0.004 0.2096,-1.66383 0.9375,0.0937 0.0937,2.5 0.5625,0.0312 0.59375,-2.5625 -1.39553,-1.21875 V 6.98988 h -2.94822 z"
       id="path27321"
       style="color:#000000;clip-rule:nonzero;display:inline;overflow:visible;visibility:visible;opacity:1;isolation:auto;mix-blend-mode:normal;color-interpolation:sRGB;color-interpolation-filters:linearRGB;solid-color:#000000;solid-opacity:1;fill:#2e3436;fill-opacity:1;fill-rule:nonzero;stroke:none;stroke-width:1;stroke-linecap:butt;stroke-linejoin:miter;stroke-miterlimit:4;stroke-dasharray:none;stroke-dashoffset:0;stroke-opacity:1;marker:none;marker-start:none;marker-mid:none;marker-end:none;paint-order:normal;color-rendering:auto;image-rendering:auto;shape-rendering:auto;text-rendering:auto;enable-background:accumulate" />
  </g>
</svg>
