<?xml version="1.0" encoding="UTF-8" standalone="no"?>
<svg
   xmlns:dc="http://purl.org/dc/elements/1.1/"
   xmlns:cc="http://creativecommons.org/ns#"
   xmlns:rdf="http://www.w3.org/1999/02/22-rdf-syntax-ns#"
   xmlns:svg="http://www.w3.org/2000/svg"
   xmlns="http://www.w3.org/2000/svg"
   width="16"
   version="1.1"
   id="svg7384"
   height="16">
  <metadata
     id="metadata90">
    <rdf:RDF>
      <cc:Work
         rdf:about="">
        <dc:format>image/svg+xml</dc:format>
        <dc:type
           rdf:resource="http://purl.org/dc/dcmitype/StillImage" />
        <dc:title>Gnome Symbolic Icon Theme</dc:title>
      </cc:Work>
    </rdf:RDF>
  </metadata>
  <title
     id="title9167">Gnome Symbolic Icon Theme</title>
  <defs
     id="defs7386" />
  <g
     transform="translate(-60.057288,-60)"
     id="layer1" />
  <g
     transform="translate(-60.057288,-60)"
     id="layer2">
    <path
       d="M 64.5,61 C 62,61 62,63.5 62,63.5 l 2e-5,9.953125 c 0,1.546875 1.5625,1.5625 1.5625,1.5625 L 73,75 c 1,0 1,-1 1,-1 H 64.5186 C 63,74 63,72.5 63,72.5 c 0,0 0,-1.439777 1.4814,-1.441575 L 74,71.046875 V 61 Z m 0.5,2 h 2.6875 c 3.31698,0 4.27148,1.263093 4.25,3.03125 -0.03,2.467798 -2.19062,2.855573 -4.81434,2.94721 C 66.50117,69.00018 65.61717,69 65,69 Z m 2,1 v 4 c 1.94269,0.02302 3.02921,-0.589502 3.03125,-1.96875 C 70.03425,64.26277 68.75923,64.030471 67,64 Z"
       id="rect3993"
       style="color:#000000;overflow:visible;fill:#2e3436;fill-opacity:1;stroke:none;stroke-width:0.99999976;enable-background:new" />
    <path
       d="m 62.500003,71 h 10.44808 c -1.18379,0.49216 -1.2956,2.4585 0,3 h -10.44808 z"
       id="rect4006"
       style="color:#000000;overflow:visible;opacity:0.3;fill:#2e3436;fill-opacity:1;stroke:none;stroke-width:0.99999976;enable-background:new" />
  </g>
  <g
     transform="translate(-60.057288,-60)"
     id="layer3" />
</svg>
