<?xml version="1.0" encoding="UTF-8" standalone="no"?>
<svg
   xmlns:dc="http://purl.org/dc/elements/1.1/"
   xmlns:cc="http://creativecommons.org/ns#"
   xmlns:rdf="http://www.w3.org/1999/02/22-rdf-syntax-ns#"
   xmlns:svg="http://www.w3.org/2000/svg"
   xmlns="http://www.w3.org/2000/svg"
   width="16.010395"
   version="1.1"
   id="svg7384"
   height="16.000362">
  <metadata
     id="metadata90">
    <rdf:RDF>
      <cc:Work
         rdf:about="">
        <dc:format>image/svg+xml</dc:format>
        <dc:type
           rdf:resource="http://purl.org/dc/dcmitype/StillImage" />
        <dc:title>Gnome Symbolic Icon Theme</dc:title>
      </cc:Work>
    </rdf:RDF>
  </metadata>
  <title
     id="title9167">Gnome Symbolic Icon Theme</title>
  <defs
     id="defs7386" />
  <g
     transform="translate(-279.99999,-59.999674)"
     id="layer1" />
  <g
     transform="translate(-279.99999,-59.999674)"
     id="layer2">
    <path
       d="m 287.80664,60.007812 c -0.33404,0.03755 -0.65432,0.190778 -0.89258,0.427735 l -1.88086,1.890625 1.82227,1.822266 A 1.5,1.5 0 0 1 287.5,64 a 1.5,1.5 0 0 1 1.5,1.5 1.5,1.5 0 0 1 -0.14844,0.644531 l 1.50391,1.503907 A 1.5,1.5 0 0 1 291,67.5 a 1.5,1.5 0 0 1 1.5,1.5 1.5,1.5 0 0 1 -1.5,1.5 1.5,1.5 0 0 1 -1.5,-1.5 1.5,1.5 0 0 1 0.14844,-0.644531 l -1.50391,-1.503907 A 1.5,1.5 0 0 1 288,66.912109 v 3.175782 A 1.5,1.5 0 0 1 289,71.5 1.5,1.5 0 0 1 287.5,73 1.5,1.5 0 0 1 286,71.5 1.5,1.5 0 0 1 287,70.087891 V 66.912109 A 1.5,1.5 0 0 1 286,65.5 a 1.5,1.5 0 0 1 0.14844,-0.644531 l -1.82032,-1.820313 -3.9082,3.927735 c -0.54472,0.554499 -0.54472,1.549016 0,2.103515 l 6.5293,6.525391 c 0.55491,0.54432 1.55055,0.54432 2.10547,0 l 6.53125,-6.490235 c 0.56593,-0.557075 0.56593,-1.581593 0,-2.138671 l -6.53125,-6.527344 c -0.0346,-0.02534 -0.0688,-0.04806 -0.10547,-0.07031 -0.31045,-0.26788 -0.73473,-0.401001 -1.14258,-0.357422 z"
       id="path1935"
       style="color:#000000;overflow:visible;fill:#2e3436;fill-opacity:1;stroke:none;stroke-width:1.99999988;enable-background:new" />
  </g>
  <g
     transform="translate(-279.99999,-59.999674)"
     id="layer3" />
</svg>
