<?xml version="1.0" encoding="UTF-8" standalone="no"?>
<svg
   xmlns:dc="http://purl.org/dc/elements/1.1/"
   xmlns:cc="http://creativecommons.org/ns#"
   xmlns:rdf="http://www.w3.org/1999/02/22-rdf-syntax-ns#"
   xmlns:svg="http://www.w3.org/2000/svg"
   xmlns="http://www.w3.org/2000/svg"
   width="16"
   version="1.1"
   id="svg7384"
   height="16">
  <metadata
     id="metadata90">
    <rdf:RDF>
      <cc:Work
         rdf:about="">
        <dc:format>image/svg+xml</dc:format>
        <dc:type
           rdf:resource="http://purl.org/dc/dcmitype/StillImage" />
        <dc:title>Gnome Symbolic Icon Theme</dc:title>
      </cc:Work>
    </rdf:RDF>
  </metadata>
  <title
     id="title9167">Gnome Symbolic Icon Theme</title>
  <defs
     id="defs7386" />
  <g
     transform="translate(5e-5,-60.010824)"
     id="layer1" />
  <g
     transform="translate(5e-5,-60.010824)"
     id="layer2">
    <path
       d="m 1,62 v 3 h 6 v -3 z m 7,0 v 3 h 6 V 62 Z M 1,65.992188 V 69 H 3 V 66 Z M 4,66 v 3 h 3.75977 a 4.5,4.5 0 0 1 3.27148,-1.970703 V 66 Z m 8,0 v 1.03125 a 4.5,4.5 0 0 1 2,0.728516 V 66 Z M 1,70 v 3 H 7.03125 V 71.978516 A 4.5,4.5 0 0 1 7,71.5 4.5,4.5 0 0 1 7.0312,70.998047 V 70 Z"
       id="rect7417"
       style="color:#000000;overflow:visible;color-interpolation-filters:linearRGB;fill:#2e3436;fill-opacity:1;stroke:none;stroke-dasharray:1, 2;image-rendering:auto;text-rendering:auto;enable-background:new" />
    <path
       d="m 11.43905,67.931489 c -0.40656,0 -0.79288,0.0924 -1.15625,0.21875 l 1.90625,1.90625 c 0.39436,0.39326 0.39436,1.01297 0,1.40625 l -0.71875,0.75 c -0.39436,0.39327 -1.0119,0.39327 -1.40625,0 l -1.9375,-1.9375 c -0.12669,0.36235 -0.21875,0.75081 -0.21875,1.15625 0,1.94058 1.58533,3.53125 3.53125,3.53125 0.40656,0 0.79288,-0.0924 1.15625,-0.21875 l 1.21875,1.1875 c 0.021,-2.6e-4 0.0415,-2.6e-4 0.0625,0 l 2.09375,-2.09375 -1.21875,-1.21875 c 0.1267,-0.36235 0.21875,-0.78205 0.21875,-1.1875 0,-1.94057 -1.58534,-3.5 -3.53125,-3.5 z"
       id="path3908-6"
       style="color:#000000;font-style:normal;font-variant:normal;font-weight:normal;font-stretch:normal;font-size:medium;line-height:normal;font-family:Sans;-inkscape-font-specification:Sans;text-indent:0;text-align:start;text-decoration:none;text-decoration-line:none;letter-spacing:normal;word-spacing:normal;text-transform:none;writing-mode:lr-tb;direction:ltr;text-anchor:start;overflow:visible;fill:#2e3436;fill-opacity:1;stroke:none;stroke-width:3;enable-background:accumulate" />
  </g>
  <g
     transform="translate(5e-5,-60.010824)"
     id="layer3" />
</svg>
