<?xml version="1.0" encoding="UTF-8" standalone="no"?>
<svg
   xmlns:dc="http://purl.org/dc/elements/1.1/"
   xmlns:cc="http://creativecommons.org/ns#"
   xmlns:rdf="http://www.w3.org/1999/02/22-rdf-syntax-ns#"
   xmlns:svg="http://www.w3.org/2000/svg"
   xmlns="http://www.w3.org/2000/svg"
   width="16"
   version="1.1"
   id="svg7384"
   height="16">
  <metadata
     id="metadata90">
    <rdf:RDF>
      <cc:Work
         rdf:about="">
        <dc:format>image/svg+xml</dc:format>
        <dc:type
           rdf:resource="http://purl.org/dc/dcmitype/StillImage" />
        <dc:title>Gnome Symbolic Icon Theme</dc:title>
      </cc:Work>
    </rdf:RDF>
  </metadata>
  <title
     id="title9167">Gnome Symbolic Icon Theme</title>
  <defs
     id="defs7386" />
  <g
     transform="translate(-19.999993,-99.95241)"
     id="layer1" />
  <g
     transform="translate(-19.999993,-99.95241)"
     id="layer2">
    <path
       id="path1062"
       d="m 24.007812,102.95312 -0.01562,2 L 29.996094,105 H 30 c 0.39999,0 0.942672,0.2421 1.353516,0.64844 C 31.764359,106.05478 32,106.58726 32,106.95312 V 107 h -7 c -0.81747,0 -1.533134,0.36268 -2.070312,0.88281 C 22.392509,108.40295 22,109.11979 22,109.95312 v 1 c 0,0.83334 0.37904,1.54982 0.90625,2.09376 C 23.43346,113.59081 24.150803,114 25,114 h 9 v -7.04688 c 0,-1.07044 -0.521575,-2.01577 -1.240234,-2.72656 C 32.041107,103.51578 31.082,103 30,103 Z M 25,109 h 7 v 3 h -7 c -0.150803,0 -0.43346,-0.11584 -0.65625,-0.3457 C 24.12096,111.42444 24,111.11979 24,110.95312 v -1 c 0,-0.16666 0.107491,-0.42674 0.320312,-0.63281 C 24.533134,109.11424 24.81747,109 25,109 Z"
       style="color:#000000;font-style:normal;font-variant:normal;font-weight:normal;font-stretch:normal;font-size:medium;line-height:normal;font-family:sans-serif;font-variant-ligatures:normal;font-variant-position:normal;font-variant-caps:normal;font-variant-numeric:normal;font-variant-alternates:normal;font-feature-settings:normal;text-indent:0;text-align:start;text-decoration:none;text-decoration-line:none;text-decoration-style:solid;text-decoration-color:#000000;letter-spacing:normal;word-spacing:normal;text-transform:none;writing-mode:lr-tb;direction:ltr;text-orientation:mixed;dominant-baseline:auto;baseline-shift:baseline;text-anchor:start;white-space:normal;shape-padding:0;clip-rule:nonzero;display:inline;overflow:visible;visibility:visible;opacity:1;isolation:auto;mix-blend-mode:normal;color-interpolation:sRGB;color-interpolation-filters:linearRGB;solid-color:#000000;solid-opacity:1;vector-effect:none;fill:#2e3436;fill-opacity:1;fill-rule:nonzero;stroke:none;stroke-width:2;stroke-linecap:butt;stroke-linejoin:miter;stroke-miterlimit:4;stroke-dasharray:none;stroke-dashoffset:0;stroke-opacity:1;color-rendering:auto;image-rendering:auto;shape-rendering:auto;text-rendering:auto;enable-background:accumulate" />
  </g>
  <g
     transform="translate(-19.999993,-99.95241)"
     id="layer3" />
</svg>
