<?xml version="1.0" encoding="UTF-8" standalone="no"?>
<svg
   xmlns:dc="http://purl.org/dc/elements/1.1/"
   xmlns:cc="http://creativecommons.org/ns#"
   xmlns:rdf="http://www.w3.org/1999/02/22-rdf-syntax-ns#"
   xmlns:svg="http://www.w3.org/2000/svg"
   xmlns="http://www.w3.org/2000/svg"
   width="16"
   version="1.1"
   id="svg7384"
   height="16">
  <metadata
     id="metadata90">
    <rdf:RDF>
      <cc:Work
         rdf:about="">
        <dc:format>image/svg+xml</dc:format>
        <dc:type
           rdf:resource="http://purl.org/dc/dcmitype/StillImage" />
        <dc:title>Gnome Symbolic Icon Theme</dc:title>
      </cc:Work>
    </rdf:RDF>
  </metadata>
  <title
     id="title9167">Gnome Symbolic Icon Theme</title>
  <defs
     id="defs7386" />
  <g
     transform="translate(-159.99995,-100.01082)"
     id="layer1" />
  <g
     transform="translate(-159.99995,-100.01082)"
     id="layer2">
    <path
       d="m 167,102.9375 c -4.04243,0 -5.89258,3.61133 -5.89258,3.61133 l 1.78516,0.9043 c 0,0 1.2483,-2.51563 4.10742,-2.51563 2.05466,0 3.09714,1.39385 3.48438,2.07422 h -0.91016 c -1.33148,0 -1.57422,1.25245 -1.57422,2.0332 l 6,-0.0449 0.0449,-6 c -1.0442,0 -2.0332,0.52466 -2.0332,1.66797 v 0.92969 l -0.0625,0.0625 C 171.19262,104.56933 169.63468,102.9375 167,102.9375 Z"
       id="path8409"
       style="color:#000000;font-style:normal;font-variant:normal;font-weight:normal;font-stretch:normal;font-size:medium;line-height:normal;font-family:sans-serif;text-indent:0;text-align:start;text-decoration:none;text-decoration-line:none;text-decoration-style:solid;text-decoration-color:#000000;letter-spacing:normal;word-spacing:normal;text-transform:none;writing-mode:lr-tb;direction:ltr;baseline-shift:baseline;text-anchor:start;white-space:normal;overflow:visible;color-interpolation-filters:linearRGB;fill:#2e3436;fill-opacity:1;stroke:none;stroke-width:2;image-rendering:auto;text-rendering:auto;enable-background:accumulate" />
    <path
       id="rect8415"
       d="m 162.5,109 c -0.8137,0 -1.5,0.6863 -1.5,1.5 v 3 c 0,0.8137 0.6863,1.5 1.5,1.5 h 3 c 0.8137,0 1.5,-0.6863 1.5,-1.5 v -3 c 0,-0.8137 -0.6863,-1.5 -1.5,-1.5 z m 0.5,2 h 2 v 2 h -2 z"
       style="color:#000000;font-style:normal;font-variant:normal;font-weight:normal;font-stretch:normal;font-size:medium;line-height:normal;font-family:sans-serif;font-variant-ligatures:normal;font-variant-position:normal;font-variant-caps:normal;font-variant-numeric:normal;font-variant-alternates:normal;font-feature-settings:normal;text-indent:0;text-align:start;text-decoration:none;text-decoration-line:none;text-decoration-style:solid;text-decoration-color:#000000;letter-spacing:normal;word-spacing:normal;text-transform:none;writing-mode:lr-tb;direction:ltr;text-orientation:mixed;dominant-baseline:auto;baseline-shift:baseline;text-anchor:start;white-space:normal;shape-padding:0;clip-rule:evenodd;display:inline;overflow:visible;visibility:visible;opacity:1;isolation:auto;mix-blend-mode:normal;color-interpolation:sRGB;color-interpolation-filters:linearRGB;solid-color:#000000;solid-opacity:1;vector-effect:none;fill:#2e3436;fill-opacity:1;fill-rule:evenodd;stroke:none;stroke-width:2;stroke-linecap:butt;stroke-linejoin:miter;stroke-miterlimit:4;stroke-dasharray:none;stroke-dashoffset:0;stroke-opacity:1;marker:none;color-rendering:auto;image-rendering:optimizeQuality;shape-rendering:geometricPrecision;text-rendering:geometricPrecision;enable-background:accumulate" />
  </g>
  <g
     transform="translate(-159.99995,-100.01082)"
     id="layer3" />
</svg>
