<?xml version="1.0" encoding="UTF-8" standalone="no"?>
<svg
   xmlns:dc="http://purl.org/dc/elements/1.1/"
   xmlns:cc="http://creativecommons.org/ns#"
   xmlns:rdf="http://www.w3.org/1999/02/22-rdf-syntax-ns#"
   xmlns:svg="http://www.w3.org/2000/svg"
   xmlns="http://www.w3.org/2000/svg"
   width="16"
   version="1.1"
   id="svg7384"
   height="16.048315">
  <metadata
     id="metadata90">
    <rdf:RDF>
      <cc:Work
         rdf:about="">
        <dc:format>image/svg+xml</dc:format>
        <dc:type
           rdf:resource="http://purl.org/dc/dcmitype/StillImage" />
        <dc:title>Gnome Symbolic Icon Theme</dc:title>
      </cc:Work>
    </rdf:RDF>
  </metadata>
  <title
     id="title9167">Gnome Symbolic Icon Theme</title>
  <defs
     id="defs7386" />
  <g
     transform="translate(-140.06044,-139.95241)"
     id="layer1" />
  <g
     transform="translate(-140.06044,-139.95241)"
     id="layer2">
    <path
       id="path1894"
       d="m 151,140 c -1.10979,0 -2,0.9144 -2,2.01758 v 4.77539 l -0.85352,0.85351 a 0.50004988,0.50004988 0 0 0 -0.0156,0.69141 L 149,149.28711 v 4.66601 c 0,0.6576 0.23429,1.20946 0.62305,1.5625 0.38875,0.35305 0.89717,0.49848 1.39062,0.48438 l -0.0273,-1 c -0.27995,0.008 -0.52156,-0.0721 -0.68945,-0.22461 C 150.12898,154.62291 150,154.38928 150,153.95312 v -4.85937 a 0.50004988,0.50004988 0 0 0 -0.13086,-0.33789 l -0.67773,-0.74024 0.66211,-0.6621 A 0.50004988,0.50004988 0 0 0 150,147 v -4.98242 C 150,141.4321 150.42113,141 151,141 Z"
       style="color:#000000;font-style:normal;font-variant:normal;font-weight:normal;font-stretch:normal;font-size:medium;line-height:normal;font-family:sans-serif;font-variant-ligatures:normal;font-variant-position:normal;font-variant-caps:normal;font-variant-numeric:normal;font-variant-alternates:normal;font-feature-settings:normal;text-indent:0;text-align:start;text-decoration:none;text-decoration-line:none;text-decoration-style:solid;text-decoration-color:#000000;letter-spacing:normal;word-spacing:normal;text-transform:none;writing-mode:lr-tb;direction:ltr;text-orientation:mixed;dominant-baseline:auto;baseline-shift:baseline;text-anchor:start;white-space:normal;shape-padding:0;clip-rule:nonzero;display:inline;overflow:visible;visibility:visible;opacity:1;isolation:auto;mix-blend-mode:normal;color-interpolation:sRGB;color-interpolation-filters:linearRGB;solid-color:#000000;solid-opacity:1;vector-effect:none;fill:#2e3436;fill-opacity:1;fill-rule:nonzero;stroke:none;stroke-width:0.99999976;stroke-linecap:butt;stroke-linejoin:round;stroke-miterlimit:4;stroke-dasharray:none;stroke-dashoffset:0;stroke-opacity:1;color-rendering:auto;image-rendering:auto;shape-rendering:auto;text-rendering:auto;enable-background:new" />
    <path
       id="path1896"
       d="m 145,149 c 0,0 -0.70875,-0.0138 -1.44727,0.35547 C 142.81422,149.72473 142,150.66667 142,152 v 1 h 2 v -1 c 0,-0.66667 0.18578,-0.72473 0.44727,-0.85547 0.26062,-0.13031 0.54886,-0.14444 0.55078,-0.14453 0,0 0.29083,0.0132 0.55273,0.14453 0.2619,0.13136 0.44922,0.19254 0.44922,0.85938 V 155 v 1 h 2 v -1 -2.99609 c 0,-1.33342 -0.81268,-2.27629 -1.55078,-2.64649 C 145.71112,148.98722 145.00195,149 145.00195,149 Z"
       style="color:#000000;font-style:normal;font-variant:normal;font-weight:normal;font-stretch:normal;font-size:medium;line-height:normal;font-family:sans-serif;font-variant-ligatures:normal;font-variant-position:normal;font-variant-caps:normal;font-variant-numeric:normal;font-variant-alternates:normal;font-feature-settings:normal;text-indent:0;text-align:start;text-decoration:none;text-decoration-line:none;text-decoration-style:solid;text-decoration-color:#000000;letter-spacing:normal;word-spacing:normal;text-transform:none;writing-mode:lr-tb;direction:ltr;text-orientation:mixed;dominant-baseline:auto;baseline-shift:baseline;text-anchor:start;white-space:normal;shape-padding:0;clip-rule:nonzero;display:inline;overflow:visible;visibility:visible;opacity:1;isolation:auto;mix-blend-mode:normal;color-interpolation:sRGB;color-interpolation-filters:linearRGB;solid-color:#000000;solid-opacity:1;vector-effect:none;fill:#2e3436;fill-opacity:1;fill-rule:nonzero;stroke:none;stroke-width:2;stroke-linecap:square;stroke-linejoin:miter;stroke-miterlimit:4;stroke-dasharray:none;stroke-dashoffset:0;stroke-opacity:1;color-rendering:auto;image-rendering:auto;shape-rendering:auto;text-rendering:auto;enable-background:new" />
    <path
       id="path1898"
       d="m 142,149 v 1 5 1 h 2 v -1 -5 -1 z"
       style="color:#000000;font-style:normal;font-variant:normal;font-weight:normal;font-stretch:normal;font-size:medium;line-height:normal;font-family:sans-serif;font-variant-ligatures:normal;font-variant-position:normal;font-variant-caps:normal;font-variant-numeric:normal;font-variant-alternates:normal;font-feature-settings:normal;text-indent:0;text-align:start;text-decoration:none;text-decoration-line:none;text-decoration-style:solid;text-decoration-color:#000000;letter-spacing:normal;word-spacing:normal;text-transform:none;writing-mode:lr-tb;direction:ltr;text-orientation:mixed;dominant-baseline:auto;baseline-shift:baseline;text-anchor:start;white-space:normal;shape-padding:0;clip-rule:nonzero;display:inline;overflow:visible;visibility:visible;opacity:1;isolation:auto;mix-blend-mode:normal;color-interpolation:sRGB;color-interpolation-filters:linearRGB;solid-color:#000000;solid-opacity:1;vector-effect:none;fill:#2e3436;fill-opacity:1;fill-rule:nonzero;stroke:none;stroke-width:2;stroke-linecap:square;stroke-linejoin:miter;stroke-miterlimit:4;stroke-dasharray:none;stroke-dashoffset:0;stroke-opacity:1;color-rendering:auto;image-rendering:auto;shape-rendering:auto;text-rendering:auto;enable-background:new" />
    <path
       id="path1900"
       d="m 153.01367,140 v 1 c 0.57887,0 1,0.4321 1,1.01758 V 147 a 0.50004988,0.50004988 0 0 0 0.14649,0.35352 l 0.66211,0.6621 -0.67774,0.74024 a 0.50004988,0.50004988 0 0 0 -0.13086,0.33789 v 4.85937 c 0,0.43616 -0.12702,0.66979 -0.29492,0.82227 -0.1679,0.15248 -0.40951,0.23261 -0.68945,0.22461 L 153,156 c 0.49345,0.0141 1.00187,-0.13133 1.39062,-0.48438 0.38876,-0.35304 0.62305,-0.9049 0.62305,-1.5625 v -4.66601 l 0.86914,-0.94922 a 0.50004988,0.50004988 0 0 0 -0.0156,-0.69141 l -0.85352,-0.85351 v -4.77539 c 0,-1.10318 -0.89021,-2.01758 -2,-2.01758 z"
       style="color:#000000;font-style:normal;font-variant:normal;font-weight:normal;font-stretch:normal;font-size:medium;line-height:normal;font-family:sans-serif;font-variant-ligatures:normal;font-variant-position:normal;font-variant-caps:normal;font-variant-numeric:normal;font-variant-alternates:normal;font-feature-settings:normal;text-indent:0;text-align:start;text-decoration:none;text-decoration-line:none;text-decoration-style:solid;text-decoration-color:#000000;letter-spacing:normal;word-spacing:normal;text-transform:none;writing-mode:lr-tb;direction:ltr;text-orientation:mixed;dominant-baseline:auto;baseline-shift:baseline;text-anchor:start;white-space:normal;shape-padding:0;clip-rule:nonzero;display:inline;overflow:visible;visibility:visible;opacity:1;isolation:auto;mix-blend-mode:normal;color-interpolation:sRGB;color-interpolation-filters:linearRGB;solid-color:#000000;solid-opacity:1;vector-effect:none;fill:#2e3436;fill-opacity:1;fill-rule:nonzero;stroke:none;stroke-width:0.99999976;stroke-linecap:butt;stroke-linejoin:round;stroke-miterlimit:4;stroke-dasharray:none;stroke-dashoffset:0;stroke-opacity:1;color-rendering:auto;image-rendering:auto;shape-rendering:auto;text-rendering:auto;enable-background:new" />
  </g>
  <g
     transform="translate(-140.06044,-139.95241)"
     id="layer3" />
</svg>
