<?xml version="1.0" encoding="UTF-8" standalone="no"?>
<svg
   xmlns:dc="http://purl.org/dc/elements/1.1/"
   xmlns:cc="http://creativecommons.org/ns#"
   xmlns:rdf="http://www.w3.org/1999/02/22-rdf-syntax-ns#"
   xmlns:svg="http://www.w3.org/2000/svg"
   xmlns="http://www.w3.org/2000/svg"
   width="16.010395"
   version="1.1"
   id="svg7384"
   height="16.000362">
  <metadata
     id="metadata90">
    <rdf:RDF>
      <cc:Work
         rdf:about="">
        <dc:format>image/svg+xml</dc:format>
        <dc:type
           rdf:resource="http://purl.org/dc/dcmitype/StillImage" />
        <dc:title>Gnome Symbolic Icon Theme</dc:title>
      </cc:Work>
    </rdf:RDF>
  </metadata>
  <title
     id="title9167">Gnome Symbolic Icon Theme</title>
  <defs
     id="defs7386" />
  <g
     transform="translate(-39.999992,-139.99967)"
     id="layer1" />
  <g
     transform="translate(-39.999992,-139.99967)"
     id="layer2">
    <path
       d="m 47.806641,140.00781 c -0.334041,0.0375 -0.654325,0.19078 -0.892579,0.42774 l -6.49414,6.52734 c -0.544727,0.5545 -0.544727,1.54902 0,2.10352 l 6.529297,6.52539 c 0.554914,0.54432 1.550555,0.54432 2.105469,0 l 6.53125,-6.49024 c 0.565933,-0.55707 0.565933,-1.58159 0,-2.13867 l -6.53125,-6.52734 c -0.0346,-0.0253 -0.06881,-0.0481 -0.105469,-0.0703 -0.310449,-0.26788 -0.734729,-0.401 -1.142578,-0.35743 z M 47,144 h 2 c 0,0 0.706552,-0.0134 1.445312,0.35156 0.73876,0.36498 1.561952,1.29615 1.576172,2.625 v 0.0156 L 51.978516,149 H 46 c 0,0 0.0138,0.29126 0.144531,0.55273 C 46.275266,149.81421 46.3333,150 47,150 h 2 1 v 2 h -1 -2 c -1.33335,0 -2.275279,-0.81421 -2.644531,-1.55273 C 43.98622,149.70874 44,149 44,149 v -2 c 0,0 -0.01377,-0.7087 0.355469,-1.44727 C 44.724703,144.81417 45.666583,144 47,144 Z m 0,2 c -0.666833,0 -0.724766,0.18583 -0.855469,0.44727 C 46.01383,146.7087 46,147 46,147 h 4.021484 v -0.002 c -0.007,-0.65783 -0.194382,-0.72183 -0.460937,-0.85352 C 49.293992,146.01284 49,146 49,146 Z"
       id="path1650"
       style="color:#000000;overflow:visible;fill:#2e3436;fill-opacity:1;stroke:none;stroke-width:1.99999988;enable-background:new" />
  </g>
  <g
     transform="translate(-39.999992,-139.99967)"
     id="layer3" />
</svg>
