<?xml version="1.0" encoding="UTF-8" standalone="no"?>
<svg
   xmlns:dc="http://purl.org/dc/elements/1.1/"
   xmlns:cc="http://creativecommons.org/ns#"
   xmlns:rdf="http://www.w3.org/1999/02/22-rdf-syntax-ns#"
   xmlns:svg="http://www.w3.org/2000/svg"
   xmlns="http://www.w3.org/2000/svg"
   width="16"
   version="1.1"
   id="svg7384"
   height="16.048315">
  <metadata
     id="metadata90">
    <rdf:RDF>
      <cc:Work
         rdf:about="">
        <dc:format>image/svg+xml</dc:format>
        <dc:type
           rdf:resource="http://purl.org/dc/dcmitype/StillImage" />
        <dc:title>Gnome Symbolic Icon Theme</dc:title>
      </cc:Work>
    </rdf:RDF>
  </metadata>
  <title
     id="title9167">Gnome Symbolic Icon Theme</title>
  <defs
     id="defs7386" />
  <g
     transform="translate(-0.06044322,-139.95241)"
     id="layer1" />
  <g
     transform="translate(-0.06044322,-139.95241)"
     id="layer2">
    <path
       id="path1615"
       d="m 11,140 c -1.1097909,0 -2,0.9144 -2,2.01758 v 4.77539 l -0.8535156,0.85351 a 0.50004988,0.50004988 0 0 0 -0.015625,0.69141 L 9,149.28711 v 4.66601 c 0,0.6576 0.2342936,1.20946 0.6230469,1.5625 C 10.0118,155.86867 10.520219,156.0141 11.013672,156 l -0.02734,-1 c -0.279947,0.008 -0.521556,-0.0721 -0.689453,-0.22461 C 10.128978,154.62291 10,154.38928 10,153.95312 v -4.85937 a 0.50004988,0.50004988 0 0 0 -0.1308594,-0.33789 l -0.6777344,-0.74024 0.6621094,-0.6621 A 0.50004988,0.50004988 0 0 0 10,147 v -4.98242 C 10,141.4321 10.421131,141 11,141 Z"
       style="color:#000000;font-style:normal;font-variant:normal;font-weight:normal;font-stretch:normal;font-size:medium;line-height:normal;font-family:sans-serif;font-variant-ligatures:normal;font-variant-position:normal;font-variant-caps:normal;font-variant-numeric:normal;font-variant-alternates:normal;font-feature-settings:normal;text-indent:0;text-align:start;text-decoration:none;text-decoration-line:none;text-decoration-style:solid;text-decoration-color:#000000;letter-spacing:normal;word-spacing:normal;text-transform:none;writing-mode:lr-tb;direction:ltr;text-orientation:mixed;dominant-baseline:auto;baseline-shift:baseline;text-anchor:start;white-space:normal;shape-padding:0;clip-rule:nonzero;display:inline;overflow:visible;visibility:visible;opacity:1;isolation:auto;mix-blend-mode:normal;color-interpolation:sRGB;color-interpolation-filters:linearRGB;solid-color:#000000;solid-opacity:1;vector-effect:none;fill:#2e3436;fill-opacity:1;fill-rule:nonzero;stroke:none;stroke-width:0.99999976;stroke-linecap:butt;stroke-linejoin:round;stroke-miterlimit:4;stroke-dasharray:none;stroke-dashoffset:0;stroke-opacity:1;color-rendering:auto;image-rendering:auto;shape-rendering:auto;text-rendering:auto;enable-background:new" />
    <path
       id="path1617"
       d="m 5,149 c -1.3334167,0 -2.2752966,0.81417 -2.6445312,1.55273 C 1.9862341,151.2913 2,152 2,152 v 1 c 0,0 -0.013784,0.70874 0.3554688,1.44727 C 2.7247212,155.18579 3.66665,156 5,156 h 1 1 v -2 H 6 5 C 4.3333,154 4.2752663,153.81421 4.1445312,153.55273 4.0137962,153.29126 4,153 4,153 v -1 c 0,0 0.013828,-0.2913 0.1445312,-0.55273 C 4.2752341,151.18583 4.3331667,151 5,151 h 1 1 v -2 H 6 Z"
       style="color:#000000;font-style:normal;font-variant:normal;font-weight:normal;font-stretch:normal;font-size:medium;line-height:normal;font-family:sans-serif;font-variant-ligatures:normal;font-variant-position:normal;font-variant-caps:normal;font-variant-numeric:normal;font-variant-alternates:normal;font-feature-settings:normal;text-indent:0;text-align:start;text-decoration:none;text-decoration-line:none;text-decoration-style:solid;text-decoration-color:#000000;letter-spacing:normal;word-spacing:normal;text-transform:none;writing-mode:lr-tb;direction:ltr;text-orientation:mixed;dominant-baseline:auto;baseline-shift:baseline;text-anchor:start;white-space:normal;shape-padding:0;clip-rule:nonzero;display:inline;overflow:visible;visibility:visible;opacity:1;isolation:auto;mix-blend-mode:normal;color-interpolation:sRGB;color-interpolation-filters:linearRGB;solid-color:#000000;solid-opacity:1;vector-effect:none;fill:#2e3436;fill-opacity:1;fill-rule:nonzero;stroke:none;stroke-width:2;stroke-linecap:square;stroke-linejoin:miter;stroke-miterlimit:4;stroke-dasharray:none;stroke-dashoffset:0;stroke-opacity:1;color-rendering:auto;image-rendering:auto;shape-rendering:auto;text-rendering:auto;enable-background:new" />
    <path
       id="path1621"
       d="m 13.013672,140 v 1 c 0.578869,0 1,0.4321 1,1.01758 V 147 a 0.50004988,0.50004988 0 0 0 0.146484,0.35352 l 0.66211,0.6621 -0.677735,0.74024 a 0.50004988,0.50004988 0 0 0 -0.130859,0.33789 v 4.85937 c 0,0.43616 -0.127025,0.66979 -0.294922,0.82227 C 13.550853,154.92787 13.309244,155.008 13.029297,155 L 13,156 c 0.493453,0.0141 1.001872,-0.13133 1.390625,-0.48438 0.388753,-0.35304 0.623047,-0.9049 0.623047,-1.5625 v -4.66601 l 0.86914,-0.94922 a 0.50004988,0.50004988 0 0 0 -0.01562,-0.69141 l -0.853516,-0.85351 v -4.77539 c 0,-1.10318 -0.890209,-2.01758 -2,-2.01758 z"
       style="color:#000000;font-style:normal;font-variant:normal;font-weight:normal;font-stretch:normal;font-size:medium;line-height:normal;font-family:sans-serif;font-variant-ligatures:normal;font-variant-position:normal;font-variant-caps:normal;font-variant-numeric:normal;font-variant-alternates:normal;font-feature-settings:normal;text-indent:0;text-align:start;text-decoration:none;text-decoration-line:none;text-decoration-style:solid;text-decoration-color:#000000;letter-spacing:normal;word-spacing:normal;text-transform:none;writing-mode:lr-tb;direction:ltr;text-orientation:mixed;dominant-baseline:auto;baseline-shift:baseline;text-anchor:start;white-space:normal;shape-padding:0;clip-rule:nonzero;display:inline;overflow:visible;visibility:visible;opacity:1;isolation:auto;mix-blend-mode:normal;color-interpolation:sRGB;color-interpolation-filters:linearRGB;solid-color:#000000;solid-opacity:1;vector-effect:none;fill:#2e3436;fill-opacity:1;fill-rule:nonzero;stroke:none;stroke-width:0.99999976;stroke-linecap:butt;stroke-linejoin:round;stroke-miterlimit:4;stroke-dasharray:none;stroke-dashoffset:0;stroke-opacity:1;color-rendering:auto;image-rendering:auto;shape-rendering:auto;text-rendering:auto;enable-background:new" />
  </g>
  <g
     transform="translate(-0.06044322,-139.95241)"
     id="layer3" />
</svg>
