<?xml version="1.0" encoding="UTF-8" standalone="no"?>
<svg
   xmlns:dc="http://purl.org/dc/elements/1.1/"
   xmlns:cc="http://creativecommons.org/ns#"
   xmlns:rdf="http://www.w3.org/1999/02/22-rdf-syntax-ns#"
   xmlns:svg="http://www.w3.org/2000/svg"
   xmlns="http://www.w3.org/2000/svg"
   width="16"
   version="1.1"
   id="svg7384"
   height="16">
  <metadata
     id="metadata90">
    <rdf:RDF>
      <cc:Work
         rdf:about="">
        <dc:format>image/svg+xml</dc:format>
        <dc:type
           rdf:resource="http://purl.org/dc/dcmitype/StillImage" />
        <dc:title>Gnome Symbolic Icon Theme</dc:title>
      </cc:Work>
    </rdf:RDF>
  </metadata>
  <title
     id="title9167">Gnome Symbolic Icon Theme</title>
  <defs
     id="defs7386" />
  <g
     transform="translate(-159.99999,-140)"
     id="layer1" />
  <g
     transform="translate(-159.99999,-140)"
     id="layer2">
    <path
       d="m 167.94336,141 c -3.85415,0 -7,3.14585 -7,7 0,3.85415 3.14585,7 7,7 3.85415,0 7,-3.14585 7,-7 0,-3.85415 -3.14585,-7 -7,-7 z m -0.92188,3 h 2 1 v 2 h -1 -2 c 0,0 -0.29398,0.0129 -0.56054,0.14453 -0.26657,0.13169 -0.45394,0.19569 -0.46094,0.85352 V 147 h 5.02148 a 1.0001,1.0001 0 0 1 1,1 v 1 c 0,0 0.0138,0.70874 -0.35546,1.44727 C 171.29676,151.18579 170.35483,152 169.02148,152 h -2 -1 v -2 h 1 2 c 0.6667,0 0.72472,-0.18579 0.85547,-0.44727 C 170.00768,149.29126 170.02148,149 170.02148,149 h -5 a 1.0001,1.0001 0 0 1 -1,-0.97852 L 164,147.00781 a 1.0001,1.0001 0 0 1 0,-0.0312 c 0.0143,-1.32885 0.83741,-2.26002 1.57617,-2.625 C 166.31493,143.98659 167.02148,144 167.02148,144 Z"
       id="path1739"
       style="color:#000000;font-style:normal;font-variant:normal;font-weight:normal;font-stretch:normal;font-size:medium;line-height:normal;font-family:sans-serif;font-variant-ligatures:normal;font-variant-position:normal;font-variant-caps:normal;font-variant-numeric:normal;font-variant-alternates:normal;font-feature-settings:normal;text-indent:0;text-align:start;text-decoration:none;text-decoration-line:none;text-decoration-style:solid;text-decoration-color:#000000;letter-spacing:normal;word-spacing:normal;text-transform:none;writing-mode:lr-tb;direction:ltr;text-orientation:mixed;dominant-baseline:auto;baseline-shift:baseline;text-anchor:start;white-space:normal;shape-padding:0;clip-rule:nonzero;display:inline;overflow:visible;visibility:visible;opacity:1;isolation:auto;mix-blend-mode:normal;color-interpolation:sRGB;color-interpolation-filters:linearRGB;solid-color:#000000;solid-opacity:1;vector-effect:none;fill:#2e3436;fill-opacity:1;fill-rule:nonzero;stroke:none;stroke-width:2;stroke-linecap:butt;stroke-linejoin:miter;stroke-miterlimit:4;stroke-dasharray:none;stroke-dashoffset:0;stroke-opacity:1;color-rendering:auto;image-rendering:auto;shape-rendering:auto;text-rendering:auto;enable-background:accumulate" />
  </g>
  <g
     transform="translate(-159.99999,-140)"
     id="layer3" />
</svg>
