<?xml version="1.0" encoding="UTF-8" standalone="no"?>
<svg
   xmlns:dc="http://purl.org/dc/elements/1.1/"
   xmlns:cc="http://creativecommons.org/ns#"
   xmlns:rdf="http://www.w3.org/1999/02/22-rdf-syntax-ns#"
   xmlns:svg="http://www.w3.org/2000/svg"
   xmlns="http://www.w3.org/2000/svg"
   width="16"
   version="1.1"
   id="svg7384"
   height="16">
  <metadata
     id="metadata90">
    <rdf:RDF>
      <cc:Work
         rdf:about="">
        <dc:format>image/svg+xml</dc:format>
        <dc:type
           rdf:resource="http://purl.org/dc/dcmitype/StillImage" />
        <dc:title>Gnome Symbolic Icon Theme</dc:title>
      </cc:Work>
    </rdf:RDF>
  </metadata>
  <title
     id="title9167">Gnome Symbolic Icon Theme</title>
  <defs
     id="defs7386" />
  <g
     transform="translate(-20.000003,-139.97656)"
     id="layer1" />
  <g
     transform="translate(-20.000003,-139.97656)"
     id="layer2">
    <path
       d="m 28,140.97656 c -3.86599,0 -7,3.13401 -7,7 0,3.866 3.13401,7 7,7 3.86599,0 7,-3.134 7,-7 0,-3.86599 -3.13401,-7 -7,-7 z M 25,144 h 2 v 2 h 2 v -2 h 2 v 2 h 1 v 1 h -1 v 2 h 1 v 1 h -1 v 2 h -2 v -2 h -2 v 2 h -2 v -2 h -1 v -1 h 1 v -2 h -1 v -1 h 1 z m 2,3 v 2 h 2 v -2 z"
       id="path17573"
       style="color:#000000;overflow:visible;color-interpolation-filters:linearRGB;fill:#2e3436;fill-opacity:1;stroke:none;stroke-width:2;stroke-linecap:round;image-rendering:auto;text-rendering:auto;enable-background:accumulate" />
  </g>
  <g
     transform="translate(-20.000003,-139.97656)"
     id="layer3" />
</svg>
