<?xml version="1.0" encoding="UTF-8" standalone="no"?>
<svg
   xmlns:dc="http://purl.org/dc/elements/1.1/"
   xmlns:cc="http://creativecommons.org/ns#"
   xmlns:rdf="http://www.w3.org/1999/02/22-rdf-syntax-ns#"
   xmlns:svg="http://www.w3.org/2000/svg"
   xmlns="http://www.w3.org/2000/svg"
   width="16.010395"
   version="1.1"
   id="svg7384"
   height="16.000362">
  <metadata
     id="metadata90">
    <rdf:RDF>
      <cc:Work
         rdf:about="">
        <dc:format>image/svg+xml</dc:format>
        <dc:type
           rdf:resource="http://purl.org/dc/dcmitype/StillImage" />
        <dc:title>Gnome Symbolic Icon Theme</dc:title>
      </cc:Work>
    </rdf:RDF>
  </metadata>
  <title
     id="title9167">Gnome Symbolic Icon Theme</title>
  <defs
     id="defs7386" />
  <g
     transform="translate(-179.99999,-139.99967)"
     id="layer1" />
  <g
     transform="translate(-179.99999,-139.99967)"
     id="layer2">
    <path
       d="m 187.80664,140.00781 c -0.33404,0.0375 -0.65432,0.19078 -0.89258,0.42774 l -6.49414,6.52734 c -0.54472,0.5545 -0.54472,1.54902 0,2.10352 l 6.5293,6.52539 c 0.55491,0.54432 1.55055,0.54432 2.10547,0 l 6.53125,-6.49024 c 0.56593,-0.55707 0.56593,-1.58159 0,-2.13867 l -6.53125,-6.52734 c -0.0346,-0.0253 -0.0688,-0.0481 -0.10547,-0.0703 -0.31045,-0.26788 -0.73473,-0.401 -1.14258,-0.35743 z M 187.02148,144 h 2 1 v 2 h -1 -2 c 0,0 -0.29398,0.0129 -0.56054,0.14453 -0.26657,0.13169 -0.45394,0.19569 -0.46094,0.85352 V 147 h 5.02148 a 1.0001,1.0001 0 0 1 1,1 v 1 c 0,0 0.0138,0.70874 -0.35546,1.44727 C 191.29676,151.18579 190.35483,152 189.02148,152 h -2 -1 v -2 h 1 2 c 0.6667,0 0.72472,-0.18579 0.85547,-0.44727 C 190.00768,149.29126 190.02148,149 190.02148,149 h -5 a 1.0001,1.0001 0 0 1 -1,-0.97852 L 184,147.00781 a 1.0001,1.0001 0 0 1 0,-0.0312 c 0.0143,-1.32885 0.83741,-2.26002 1.57617,-2.625 C 186.31493,143.98659 187.02148,144 187.02148,144 Z"
       id="path1733"
       style="color:#000000;overflow:visible;fill:#2e3436;fill-opacity:1;stroke:none;stroke-width:1.99999988;enable-background:new" />
  </g>
  <g
     transform="translate(-179.99999,-139.99967)"
     id="layer3" />
</svg>
