<?xml version="1.0" encoding="UTF-8" standalone="no"?>
<svg
   xmlns:dc="http://purl.org/dc/elements/1.1/"
   xmlns:cc="http://creativecommons.org/ns#"
   xmlns:rdf="http://www.w3.org/1999/02/22-rdf-syntax-ns#"
   xmlns:svg="http://www.w3.org/2000/svg"
   xmlns="http://www.w3.org/2000/svg"
   width="16"
   version="1.1"
   id="svg7384"
   height="16">
  <metadata
     id="metadata90">
    <rdf:RDF>
      <cc:Work
         rdf:about="">
        <dc:format>image/svg+xml</dc:format>
        <dc:type
           rdf:resource="http://purl.org/dc/dcmitype/StillImage" />
        <dc:title>Gnome Symbolic Icon Theme</dc:title>
      </cc:Work>
    </rdf:RDF>
  </metadata>
  <title
     id="title9167">Gnome Symbolic Icon Theme</title>
  <defs
     id="defs7386" />
  <g
     transform="translate(-60.021476,-140)"
     id="layer1" />
  <g
     transform="translate(-60.021476,-140)"
     id="layer2">
    <path
       d="m 67.964843,141 c -3.854148,0 -7,3.14585 -7,7 0,3.85415 3.145852,7 7,7 3.854149,0 7,-3.14585 7,-7 0,-3.85415 -3.145851,-7 -7,-7 z m -0.943359,3 h 2 c 0,0 0.706552,-0.0134 1.445312,0.35156 0.73876,0.36498 1.561952,1.29615 1.576172,2.625 v 0.0156 L 72,149 h -5.978516 c 0,0 0.0138,0.29126 0.144531,0.55273 C 66.29675,149.81421 66.354784,150 67.021484,150 h 2 1 v 2 h -1 -2 c -1.33335,0 -2.275279,-0.81421 -2.644531,-1.55273 C 64.007704,149.70874 64.021484,149 64.021484,149 v -2 c 0,0 -0.01377,-0.7087 0.355469,-1.44727 C 64.746187,144.81417 65.688067,144 67.021484,144 Z m 0,2 c -0.666833,0 -0.724766,0.18583 -0.855469,0.44727 C 66.035314,146.7087 66.021484,147 66.021484,147 h 4.021484 v -0.002 c -0.007,-0.65783 -0.194382,-0.72183 -0.460937,-0.85352 C 69.315476,146.01284 69.021484,146 69.021484,146 Z"
       id="path7891-2"
       style="color:#000000;font-style:normal;font-variant:normal;font-weight:normal;font-stretch:normal;font-size:medium;line-height:normal;font-family:sans-serif;font-variant-ligatures:normal;font-variant-position:normal;font-variant-caps:normal;font-variant-numeric:normal;font-variant-alternates:normal;font-feature-settings:normal;text-indent:0;text-align:start;text-decoration:none;text-decoration-line:none;text-decoration-style:solid;text-decoration-color:#000000;letter-spacing:normal;word-spacing:normal;text-transform:none;writing-mode:lr-tb;direction:ltr;text-orientation:mixed;dominant-baseline:auto;baseline-shift:baseline;text-anchor:start;white-space:normal;shape-padding:0;clip-rule:nonzero;display:inline;overflow:visible;visibility:visible;opacity:1;isolation:auto;mix-blend-mode:normal;color-interpolation:sRGB;color-interpolation-filters:linearRGB;solid-color:#000000;solid-opacity:1;vector-effect:none;fill:#2e3436;fill-opacity:1;fill-rule:nonzero;stroke:none;stroke-width:2;stroke-linecap:butt;stroke-linejoin:miter;stroke-miterlimit:4;stroke-dasharray:none;stroke-dashoffset:0;stroke-opacity:1;color-rendering:auto;image-rendering:auto;shape-rendering:auto;text-rendering:auto;enable-background:accumulate" />
  </g>
  <g
     transform="translate(-60.021476,-140)"
     id="layer3" />
</svg>
